<svg width="1280" height="640" viewBox="0 0 1280 640" xmlns="http://www.w3.org/2000/svg" font-family="Georgia, 'Times New Roman', serif">
  <defs>
    <linearGradient id="bg" x1="0" y1="0" x2="1280" y2="640" gradientUnits="userSpaceOnUse">
      <stop offset="0" stop-color="#08080C"/>
      <stop offset="1" stop-color="#0F0F15"/>
    </linearGradient>
    <radialGradient id="glow" cx="640" cy="230" r="520" gradientUnits="userSpaceOnUse">
      <stop offset="0" stop-color="#B8860B" stop-opacity="0.18"/>
      <stop offset="1" stop-color="#B8860B" stop-opacity="0"/>
    </radialGradient>
    <linearGradient id="goldText" x1="0" y1="0" x2="0" y2="1">
      <stop offset="0" stop-color="#D4A853"/>
      <stop offset="1" stop-color="#B8860B"/>
    </linearGradient>
  </defs>

  <rect width="1280" height="640" fill="url(#bg)"/>
  <rect width="1280" height="640" fill="url(#glow)"/>

  <rect x="20" y="20" width="1240" height="600" fill="none" stroke="#4A4035" stroke-width="1"/>
  <rect x="28" y="28" width="1224" height="584" fill="none" stroke="#2A1F0E" stroke-width="1"/>

  <!-- eye / lens motif, centered above the wordmark -->
  <g transform="translate(640,168)">
    <circle r="86" fill="none" stroke="#B8860B" stroke-width="1.5" opacity="0.55"/>
    <circle r="64" fill="none" stroke="#8B4513" stroke-width="1" opacity="0.4"/>
    <path d="M -72 0 Q 0 -55 72 0 Q 0 55 -72 0 Z" fill="none" stroke="#D4A853" stroke-width="2.5"/>
    <circle r="19" fill="#0F0F15" stroke="#D4A853" stroke-width="2.5"/>
    <circle r="7" fill="#B8860B"/>
    <g stroke="#8B4513" stroke-width="1.2" opacity="0.5">
      <line x1="0" y1="-96" x2="0" y2="-112"/>
      <line x1="0" y1="96" x2="0" y2="112"/>
      <line x1="-96" y1="0" x2="-112" y2="0"/>
      <line x1="96" y1="0" x2="112" y2="0"/>
      <line x1="-68" y1="-68" x2="-79" y2="-79"/>
      <line x1="68" y1="-68" x2="79" y2="-79"/>
      <line x1="-68" y1="68" x2="-79" y2="79"/>
      <line x1="68" y1="68" x2="79" y2="79"/>
    </g>
  </g>

  <text x="640" y="330" font-size="86" letter-spacing="20" fill="url(#goldText)" font-weight="bold" text-anchor="middle">ARGUS</text>
  <text x="640" y="372" font-size="24" letter-spacing="1.5" fill="#C4A882" font-style="italic" text-anchor="middle">The security tool built for the vibe-coding era.</text>
  <text x="640" y="404" font-size="18" fill="#6B5A45" text-anchor="middle">Point it at a repo. It reads the code, spins up the app, and attacks it.</text>

  <text x="640" y="460" font-family="'Consolas','Courier New',monospace" font-size="15" fill="#4A4035" letter-spacing="1.5" text-anchor="middle">STATIC SCAN &#183; LIVE ATTACK SWARM &#183; LLM-EXPLAINED FIXES &#183; MCP-AWARE</text>

  <!-- badge row -->
  <g transform="translate(640,510)" text-anchor="middle" font-family="'Consolas','Courier New',monospace" font-size="14" fill="#8B4513">
    <text>21 attack agents &#183; open source &#183; MIT &#183; local-first / BYOK LLM</text>
  </g>

  <text x="640" y="590" font-size="15" fill="#4A4035" text-anchor="middle" letter-spacing="1">github.com/Sarthak-47/ARGUS</text>
</svg>
